<?xml version="1.0" encoding="UTF-8"?>
<svg version="1.1" xmlns="http://www.w3.org/2000/svg" width="150" height="150">
<path d="M0 0 C2.04683723 -0.00337355 4.09367251 -0.00823064 6.14050293 -0.01449585 C10.41726878 -0.02184171 14.69351026 -0.01123548 18.97021484 0.01220703 C24.43089291 0.0406931 29.89034197 0.02427686 35.35097504 -0.00565529 C39.57372162 -0.02379012 43.79618054 -0.0179419 48.01893616 -0.00501633 C50.03141936 -0.0016994 52.04392934 -0.00570854 54.05638123 -0.01741409 C66.54827813 -0.07414202 76.27089133 -0.00649791 85.78125 9.0390625 C93.88910731 19.06821302 96.22113419 31.87001759 96.28125 44.3515625 C96.3121875 45.9284082 96.3121875 45.9284082 96.34375 47.53710938 C96.35148437 49.09075195 96.35148437 49.09075195 96.359375 50.67578125 C96.3687207 51.60865967 96.37806641 52.54153809 96.38769531 53.50268555 C96.07043304 56.31654114 95.50876446 58.23288699 94.52954102 60.84692383 C92.65830188 66.17352521 92.65910148 71.12817737 92.73046875 76.7265625 C92.72282968 78.84375314 92.71434031 80.96094084 92.70507812 83.078125 C92.70728864 86.37620997 92.71883043 89.67370496 92.74633789 92.97167969 C92.76713909 96.18223784 92.75098754 99.39103865 92.73046875 102.6015625 C92.74897385 103.57681885 92.76747894 104.5520752 92.7865448 105.55688477 C92.69770453 113.92696894 89.50040342 118.96279574 83.87109375 124.96875 C83.24332031 125.48695313 82.61554688 126.00515625 81.96875 126.5390625 C81.33839844 127.07273437 80.70804687 127.60640625 80.05859375 128.15625 C79.38957031 128.65382813 78.72054687 129.15140625 78.03125 129.6640625 C77.35175293 130.18019104 76.67225586 130.69631958 75.97216797 131.22808838 C71.91639728 133.20841623 68.4084543 133.12986589 63.94921875 133.14746094 C63.04278122 133.16235565 62.13634369 133.17725037 61.20243835 133.19259644 C58.20780541 133.23635343 55.21364996 133.25685327 52.21875 133.2734375 C50.12711586 133.29070785 48.03548175 133.30798083 45.94384766 133.32525635 C41.55580442 133.35676046 37.16792553 133.3743028 32.77978516 133.38476562 C27.1853176 133.40116783 21.59306007 133.47313864 15.99928284 133.55868149 C11.67521066 133.61486845 7.35165841 133.63019368 3.0272522 133.63477325 C0.96688829 133.64379386 -1.09347079 133.66767939 -3.1534729 133.7073288 C-16.43149672 133.94454055 -25.03715508 133.04719398 -34.96875 123.6640625 C-44.8060222 114.16766542 -44.84840582 101.5073938 -45.15820312 88.56982422 C-45.24415353 82.91847873 -45.25002292 77.26832969 -45.22949219 71.61645508 C-45.21875792 68.10415429 -45.22945207 64.59236361 -45.2421875 61.08007812 C-45.26724655 28.26575688 -45.26724655 28.26575688 -39.65625 18.0390625 C-38.79580078 16.41097656 -38.79580078 16.41097656 -37.91796875 14.75 C-28.43066399 -0.26998148 -16.42868804 -0.09555847 0 0 Z " fill="#0D29D9" transform="translate(49.96875,9.3359375)"/>
<path d="M0 0 C1.16249771 -0.01248528 1.16249771 -0.01248528 2.34848022 -0.02522278 C4.8921217 -0.049175 7.43550602 -0.05807658 9.97924805 -0.06469727 C11.76132783 -0.07367474 13.54340689 -0.08279677 15.32548523 -0.09205627 C19.0550621 -0.10850862 22.78454961 -0.11623954 26.51416016 -0.11914062 C31.27199431 -0.12452095 36.02897811 -0.16220254 40.78657246 -0.20788479 C44.46625266 -0.23775876 48.14573059 -0.24486642 51.82552147 -0.24586678 C53.57847171 -0.25004846 55.3314237 -0.26239949 57.08425331 -0.28338432 C68.83080045 -0.41282769 77.76105411 0.15348634 86.6784668 8.68139648 C94.78632411 18.710547 97.11835099 31.51235157 97.1784668 43.99389648 C97.1990918 45.04512695 97.2197168 46.09635742 97.2409668 47.17944336 C97.2703998 53.09179733 96.73748424 57.90255603 94.62329102 63.43212891 C93.79480638 65.66694146 93.50249625 67.74504569 93.3659668 70.11889648 C93.17264936 73.33499564 92.50691626 75.48547275 90.9284668 78.30639648 C90.9284668 77.64639648 90.9284668 76.98639648 90.9284668 76.30639648 C90.2684668 76.30639648 89.6084668 76.30639648 88.9284668 76.30639648 C88.9284668 74.32639648 88.9284668 72.34639648 88.9284668 70.30639648 C87.9384668 70.30639648 86.9484668 70.30639648 85.9284668 70.30639648 C86.2069043 69.16170898 86.2069043 69.16170898 86.4909668 67.99389648 C87.15665853 65.21672273 87.15665853 65.21672273 85.9284668 62.30639648 C84.6084668 62.30639648 83.2884668 62.30639648 81.9284668 62.30639648 C81.9284668 61.31639648 81.9284668 60.32639648 81.9284668 59.30639648 C81.2684668 58.97639648 80.6084668 58.64639648 79.9284668 58.30639648 C80.5884668 58.30639648 81.2484668 58.30639648 81.9284668 58.30639648 C81.9284668 57.64639648 81.9284668 56.98639648 81.9284668 56.30639648 C80.6084668 56.63639648 79.2884668 56.96639648 77.9284668 57.30639648 C75.9284668 54.30639648 75.9284668 54.30639648 75.9284668 50.30639648 C75.2684668 50.30639648 74.6084668 50.30639648 73.9284668 50.30639648 C73.38473729 47.247918 72.9284668 44.41866844 72.9284668 41.30639648 C72.2684668 41.30639648 71.6084668 41.30639648 70.9284668 41.30639648 C70.87303711 41.84393555 70.81760742 42.38147461 70.76049805 42.93530273 C69.54391148 46.40228886 67.12043926 48.648962 64.6159668 51.24389648 C63.51682269 52.40778357 62.41786965 53.57185112 61.3190918 54.73608398 C60.75512695 55.32873047 60.19116211 55.92137695 59.61010742 56.53198242 C57.00078209 59.28526008 54.43422247 62.07736928 51.8659668 64.86889648 C50.87512888 65.94185702 49.88424355 67.01477377 48.89331055 68.08764648 C46.88025894 70.27039336 44.87293896 72.45823287 42.86987305 74.65014648 C42.37559814 75.19082764 41.88132324 75.73150879 41.37207031 76.28857422 C40.01498893 77.77418014 38.65918418 79.26095197 37.3034668 80.74780273 C36.5197168 81.59213867 35.7359668 82.43647461 34.9284668 83.30639648 C34.2684668 84.07854492 33.6084668 84.85069336 32.9284668 85.64624023 C30.9284668 87.30639648 30.9284668 87.30639648 28.52099609 87.61083984 C25.33196601 87.23634879 24.55428871 86.46360276 22.44799805 84.09545898 C21.84149414 83.42772461 21.23499023 82.75999023 20.61010742 82.07202148 C19.99329102 81.36561523 19.37647461 80.65920898 18.7409668 79.93139648 C17.79833984 78.88338867 17.79833984 78.88338867 16.83666992 77.81420898 C15.67188001 76.51861379 14.51280061 75.21784583 13.36132812 73.91040039 C12.25603751 72.67309261 11.10162448 71.47955417 9.9284668 70.30639648 C10.48402235 65.75084093 10.48402235 65.75084093 11.9284668 64.30639648 C14.4909668 63.80639648 14.4909668 63.80639648 17.9284668 64.30639648 C20.1289137 65.91977598 22.04685011 67.67493923 23.9987793 69.57983398 C25.89349099 71.27510234 27.61305458 72.28761511 29.9284668 73.30639648 C30.56461914 72.56196289 30.56461914 72.56196289 31.21362305 71.80249023 C34.18636551 68.35933577 37.1816677 64.99429674 40.4284668 61.80639648 C42.78019279 59.49620207 44.97885945 57.12857461 47.1159668 54.61889648 C49.32121454 52.03936358 51.6115522 49.60571173 54.0378418 47.23608398 C54.85925659 46.43303833 54.85925659 46.43303833 55.69726562 45.61376953 C56.79730143 44.54592204 57.90380316 43.48468958 59.01708984 42.43066406 C60.37661176 41.11099431 61.65926373 39.71314865 62.9284668 38.30639648 C62.9284668 37.31639648 62.9284668 36.32639648 62.9284668 35.30639648 C62.2684668 36.29639648 61.6084668 37.28639648 60.9284668 38.30639648 C60.4334668 36.32639648 60.4334668 36.32639648 59.9284668 34.30639648 C59.2684668 34.30639648 58.6084668 34.30639648 57.9284668 34.30639648 C57.5984668 33.64639648 57.2684668 32.98639648 56.9284668 32.30639648 C54.90383425 31.65426357 54.90383425 31.65426357 52.9284668 31.30639648 C52.9284668 30.64639648 52.9284668 29.98639648 52.9284668 29.30639648 C51.9384668 29.30639648 50.9484668 29.30639648 49.9284668 29.30639648 C49.9284668 28.64639648 49.9284668 27.98639648 49.9284668 27.30639648 C49.2684668 27.30639648 48.6084668 27.30639648 47.9284668 27.30639648 C47.9284668 26.64639648 47.9284668 25.98639648 47.9284668 25.30639648 C47.2684668 25.30639648 46.6084668 25.30639648 45.9284668 25.30639648 C45.4334668 26.79139648 45.4334668 26.79139648 44.9284668 28.30639648 C42.9284668 26.30639648 42.9284668 26.30639648 41.9284668 23.30639648 C41.4128418 22.62577148 40.8972168 21.94514648 40.3659668 21.24389648 C38.9284668 19.30639648 38.9284668 19.30639648 38.9284668 17.30639648 C39.5884668 17.30639648 40.2484668 17.30639648 40.9284668 17.30639648 C40.9284668 17.96639648 40.9284668 18.62639648 40.9284668 19.30639648 C41.5884668 19.30639648 42.2484668 19.30639648 42.9284668 19.30639648 C42.9284668 17.98639648 42.9284668 16.66639648 42.9284668 15.30639648 C41.6084668 15.30639648 40.2884668 15.30639648 38.9284668 15.30639648 C38.9284668 14.64639648 38.9284668 13.98639648 38.9284668 13.30639648 C35.07478884 12.86452829 31.2204928 12.42830306 27.3659668 11.99389648 C26.17551758 11.85927002 24.98506836 11.72464355 23.75854492 11.5859375 C16.95648482 10.82814714 10.15465074 10.12684594 3.33862305 9.50952148 C2.63418564 9.4449324 1.92974823 9.38034332 1.20396423 9.313797 C-2.24717908 8.9977752 -5.69872653 8.69050141 -9.15185547 8.39697266 C-10.40409912 8.28329346 -11.65634277 8.16961426 -12.9465332 8.05249023 C-14.05770508 7.95637451 -15.16887695 7.86025879 -16.3137207 7.76123047 C-19.0715332 7.30639648 -19.0715332 7.30639648 -22.0715332 5.30639648 C-14.75100773 2.01962995 -8.11178951 0.00752469 0 0 Z " fill="#1DE2E3" transform="translate(49.071533203125,9.693603515625)"/>
<path d="M0 0 C0.85722656 0.28746094 1.71445313 0.57492188 2.59765625 0.87109375 C3.48828125 3.42578125 3.48828125 3.42578125 3.59765625 6.87109375 C1.90445378 9.61822838 -0.35248837 11.75007038 -2.65234375 13.99609375 C-3.9563064 15.32755994 -5.25968538 16.65959796 -6.5625 17.9921875 C-7.21492676 18.64815918 -7.86735352 19.30413086 -8.53955078 19.97998047 C-11.12878109 22.60857522 -13.61349288 25.32414692 -16.08984375 28.05859375 C-16.96125 29.01121094 -17.83265625 29.96382812 -18.73046875 30.9453125 C-20.11279326 32.45899825 -21.49508704 33.97271214 -22.87695312 35.48681641 C-24.36385299 37.11557767 -25.85183657 38.74334415 -27.33984375 40.37109375 C-28.21511719 41.33015625 -29.09039062 42.28921875 -29.9921875 43.27734375 C-30.78753906 44.13328125 -31.58289063 44.98921875 -32.40234375 45.87109375 C-33.06363281 46.64453125 -33.72492188 47.41796875 -34.40625 48.21484375 C-36.40234375 49.87109375 -36.40234375 49.87109375 -38.80957031 50.17529297 C-41.99890179 49.8011021 -42.77636691 49.02847422 -44.8828125 46.66015625 C-45.48931641 45.99242187 -46.09582031 45.3246875 -46.72070312 44.63671875 C-47.33751953 43.9303125 -47.95433594 43.22390625 -48.58984375 42.49609375 C-49.21826172 41.79742187 -49.84667969 41.09875 -50.49414062 40.37890625 C-51.65893054 39.08331105 -52.81800994 37.7825431 -53.96948242 36.47509766 C-55.07477304 35.23778988 -56.22918607 34.04425143 -57.40234375 32.87109375 C-56.84678819 28.31553819 -56.84678819 28.31553819 -55.40234375 26.87109375 C-52.83984375 26.37109375 -52.83984375 26.37109375 -49.40234375 26.87109375 C-47.20189684 28.48447325 -45.28396044 30.2396365 -43.33203125 32.14453125 C-41.43731956 33.8397996 -39.71775597 34.85231237 -37.40234375 35.87109375 C-36.97824219 35.37480469 -36.55414063 34.87851563 -36.1171875 34.3671875 C-33.14444503 30.92403304 -30.14914285 27.558994 -26.90234375 24.37109375 C-24.57111343 22.08094238 -22.39265811 19.73653774 -20.27734375 17.24609375 C-16.8797535 13.35542918 -13.40040192 9.55014612 -9.83984375 5.80859375 C-9.29763184 5.21159668 -8.75541992 4.61459961 -8.19677734 3.99951172 C-4.17102762 -0.15802975 -4.17102762 -0.15802975 0 0 Z " fill="#F8FAFC" transform="translate(116.40234375,47.12890625)"/>
<path d="M0 0 C0.05784708 4.12494151 0.09354407 8.24977944 0.125 12.375 C0.14175781 13.550625 0.15851563 14.72625 0.17578125 15.9375 C0.18222656 17.05898437 0.18867187 18.18046875 0.1953125 19.3359375 C0.20578613 20.37282715 0.21625977 21.4097168 0.22705078 22.47802734 C0 25 0 25 -2 27 C-4.58081055 27.25396729 -4.58081055 27.25396729 -7.88671875 27.25878906 C-9.12139893 27.26509338 -10.3560791 27.27139771 -11.62817383 27.27789307 C-12.981284 27.27431338 -14.33439287 27.27021145 -15.6875 27.265625 C-17.06990629 27.26697175 -18.45231213 27.26891236 -19.8347168 27.27142334 C-22.73328151 27.27437418 -25.63172303 27.27007836 -28.53027344 27.26074219 C-32.24960637 27.24934755 -35.96865068 27.25590725 -39.68797302 27.26788712 C-42.54295027 27.27510688 -45.39785885 27.27281728 -48.25283813 27.26763153 C-49.62440017 27.26629535 -50.99596839 27.26794166 -52.36752319 27.27259064 C-54.2827747 27.27765748 -56.19804801 27.26856831 -58.11328125 27.25878906 C-59.20423096 27.25719788 -60.29518066 27.25560669 -61.41918945 27.25396729 C-64 27 -64 27 -66 25 C-65.44444444 20.44444444 -65.44444444 20.44444444 -64 19 C-59.47585674 18.78118475 -54.94638235 18.81420934 -50.41748047 18.81469727 C-48.14141003 18.81251573 -45.86582801 18.79437771 -43.58984375 18.77539062 C-42.14583499 18.77245577 -40.70182393 18.77047159 -39.2578125 18.76953125 C-37.9392627 18.76542236 -36.62071289 18.76131348 -35.26220703 18.75708008 C-32 19 -32 19 -29 21 C-25.95804573 21.33340471 -25.95804573 21.33340471 -23 21 C-22.34 20.34 -21.68 19.68 -21 19 C-17.9609375 18.8046875 -17.9609375 18.8046875 -14.375 18.875 C-12.59222656 18.90207031 -12.59222656 18.90207031 -10.7734375 18.9296875 C-9.85820313 18.95289062 -8.94296875 18.97609375 -8 19 C-8.05800781 18.13117188 -8.11601563 17.26234375 -8.17578125 16.3671875 C-8.59038603 5.7769968 -8.59038603 5.7769968 -5.6875 2.1875 C-3 0 -3 0 0 0 Z " fill="#F2F7FB" transform="translate(104,81)"/>
<path d="M0 0 C1.19141098 -0.00637985 2.38282196 -0.0127597 3.6103363 -0.01933289 C4.90302933 -0.02044571 6.19572235 -0.02155853 7.52758789 -0.02270508 C8.86275773 -0.02591747 10.19792722 -0.02928153 11.53309631 -0.03279114 C14.33327043 -0.03878283 17.13341368 -0.04063099 19.93359375 -0.04003906 C23.52277359 -0.03993742 27.11175568 -0.05359108 30.70088863 -0.07081127 C33.45895803 -0.08192634 36.21697954 -0.08395843 38.97506905 -0.08342934 C40.94212939 -0.08518459 42.9091748 -0.09602836 44.87620544 -0.10697937 C46.07076859 -0.10390274 47.26533173 -0.10082611 48.49609375 -0.09765625 C50.07589272 -0.09979378 50.07589272 -0.09979378 51.68760681 -0.10197449 C54.31274414 0.14526367 54.31274414 0.14526367 57.31274414 2.14526367 C56.89957192 6.96560629 54.93254499 9.05518978 51.31274414 12.14526367 C50.65274414 12.14526367 49.99274414 12.14526367 49.31274414 12.14526367 C48.81774414 10.66026367 48.81774414 10.66026367 48.31274414 9.14526367 C47.62814117 9.13717682 46.94353821 9.12908997 46.2381897 9.12075806 C39.13329008 9.0349136 32.02867597 8.93541953 24.92407227 8.82788086 C22.27014956 8.78952186 19.61617363 8.75468141 16.9621582 8.72338867 C13.15434704 8.67788831 9.34690456 8.61986918 5.53930664 8.55932617 C4.34657135 8.54777496 3.15383606 8.53622375 1.92495728 8.52432251 C0.82396698 8.50445282 -0.27702332 8.48458313 -1.41137695 8.46411133 C-2.38400482 8.45078766 -3.35663269 8.43746399 -4.35873413 8.42373657 C-6.68725586 8.14526367 -6.68725586 8.14526367 -8.68725586 6.14526367 C-8.43725586 3.58276367 -8.43725586 3.58276367 -7.68725586 1.14526367 C-5.02249944 -0.18711454 -2.9839695 0.01080791 0 0 Z " fill="#F3F6FC" transform="translate(46.687255859375,43.854736328125)"/>
<path d="M0 0 C0.33 0.99 0.66 1.98 1 3 C0.67 3.33 0.34 3.66 0 4 C-0.11646196 6.6962786 -0.16801091 9.3672839 -0.17700195 12.06469727 C-0.18357315 12.91030716 -0.19014435 13.75591705 -0.19691467 14.62715149 C-0.21670676 17.44023722 -0.22832664 20.25326929 -0.23828125 23.06640625 C-0.24235678 24.02636946 -0.2464323 24.98633266 -0.25063133 25.97538567 C-0.27152258 31.06146914 -0.285808 36.14752543 -0.29516602 41.23364258 C-0.30620464 46.48043275 -0.3405663 51.72679578 -0.38033772 56.9734354 C-0.40653522 61.01159941 -0.41486091 65.04966247 -0.41844749 69.08790398 C-0.42330956 71.02112635 -0.43491267 72.95434433 -0.45348549 74.8874836 C-0.47793144 77.60184141 -0.47690142 80.31510595 -0.4699707 83.02954102 C-0.48278076 83.82207275 -0.49559082 84.61460449 -0.50878906 85.43115234 C-0.4614495 90.54427178 0.62522429 93.96282684 3.23917866 98.3700552 C3.4902497 98.90793698 3.74132074 99.44581877 4 100 C3.505 100.99 3.505 100.99 3 102 C-8.0285653 89.13334048 -5.31864938 67.89357583 -5.26074219 51.95239258 C-5.25000792 48.44009179 -5.26070207 44.92830111 -5.2734375 41.41601562 C-5.29704557 9.5780083 -5.29704557 9.5780083 0 0 Z " fill="#646464" transform="translate(10,29)"/>
<path d="M0 0 C1.29111191 0.0001133 1.29111191 0.0001133 2.60830688 0.00022888 C3.53855682 0.00539017 4.46880676 0.01055145 5.42724609 0.01586914 C6.37884613 0.01728409 7.33044617 0.01869904 8.31088257 0.02015686 C11.35751456 0.02576527 14.40407372 0.0383192 17.45068359 0.05102539 C19.51318253 0.05603931 21.57568262 0.0606024 23.63818359 0.06469727 C28.70071176 0.07573744 33.76318532 0.09300772 38.82568359 0.11352539 C39.40771484 1.97290039 39.40771484 1.97290039 39.82568359 4.11352539 C38.51318359 6.36352539 38.51318359 6.36352539 35.82568359 8.11352539 C30.85656293 8.7793226 27.05701869 8.93441545 22.82568359 6.11352539 C18.3020158 5.6621196 18.3020158 5.6621196 14.14208984 7.11352539 C10.56361869 8.65836285 7.05409174 8.40231809 3.20068359 8.36352539 C2.42466797 8.37125977 1.64865234 8.37899414 0.84912109 8.38696289 C-4.92091375 8.36692805 -4.92091375 8.36692805 -7.17431641 6.11352539 C-6.92431641 3.55102539 -6.92431641 3.55102539 -6.17431641 1.11352539 C-3.86611133 -0.04057715 -2.56647364 -0.00750431 0 0 Z " fill="#EDF0F9" transform="translate(45.17431640625,62.886474609375)"/>
<path d="M0 0 C20.13 0 40.26 0 61 0 C60.34 0.99 59.68 1.98 59 3 C56.3984375 3.51171875 56.3984375 3.51171875 53.375 3.6875 C51.87066406 3.78611328 51.87066406 3.78611328 50.3359375 3.88671875 C49.56507812 3.92410156 48.79421875 3.96148437 48 4 C50.64 4.33 53.28 4.66 56 5 C55.34 5.66 54.68 6.32 54 7 C52.13218336 6.80599135 50.2647759 6.59660717 48.40844727 6.3130188 C43.86765793 5.72286578 39.2920485 5.75936943 34.71875 5.68359375 C33.66465942 5.66281265 32.61056885 5.64203156 31.52453613 5.62062073 C28.18308543 5.55564325 24.84156135 5.49648289 21.5 5.4375 C19.22395098 5.39426543 16.94790917 5.35064962 14.671875 5.30664062 C9.11465913 5.20001554 3.55737155 5.09815645 -2 5 C-2 4.34 -2 3.68 -2 3 C-0.68 3 0.64 3 2 3 C2 2.34 2 1.68 2 1 C1.34 0.67 0.68 0.34 0 0 Z " fill="#35F0F2" transform="translate(50,10)"/>
<path d="M0 0 C-0.33 0.66 -0.66 1.32 -1 2 C-3.72265625 2.8515625 -3.72265625 2.8515625 -7.0625 3.625 C-8.16722656 3.88539062 -9.27195312 4.14578125 -10.41015625 4.4140625 C-11.26480469 4.60742188 -12.11945312 4.80078125 -13 5 C-10.52159495 6.23920252 -8.53796776 6.30731035 -5.7734375 6.53515625 C-4.2265625 6.66567383 -4.2265625 6.66567383 -2.6484375 6.79882812 C-1.56820312 6.88583984 -0.48796875 6.97285156 0.625 7.0625 C1.71296875 7.15337891 2.8009375 7.24425781 3.921875 7.33789062 C6.61430157 7.56225951 9.30698709 7.78280114 12 8 C8.29796702 10.46802199 5.79314988 10.09494626 1.5625 9.75 C0.85182373 9.70206299 0.14114746 9.65412598 -0.59106445 9.60473633 C-5.04326547 9.27033389 -9.31061162 8.5966298 -13.6875 7.6875 C-18.0797701 6.84888063 -18.0797701 6.84888063 -22.1875 8.6875 C-24.1702703 10.95025024 -24.1702703 10.95025024 -25 14 C-25.7425 14.61875 -25.7425 14.61875 -26.5 15.25 C-29.92409665 19.24477942 -29.16679694 26.18937804 -29.31640625 31.23828125 C-29.33723267 31.93683731 -29.35805908 32.63539337 -29.3795166 33.3551178 C-29.44591917 35.6741328 -29.50484534 37.9932519 -29.5625 40.3125 C-29.59426834 41.51498383 -29.59426834 41.51498383 -29.62667847 42.74176025 C-30.2236715 65.82304216 -30.09189488 88.91317973 -30 112 C-30.66 111.67 -31.32 111.34 -32 111 C-32.06965512 99.68170118 -32.12288997 88.36345376 -32.15543652 77.04498386 C-32.17106094 71.7887824 -32.19224023 66.53272811 -32.22631836 61.27661133 C-32.25902688 56.19969686 -32.27687724 51.12292353 -32.28463173 46.04591179 C-32.29015464 44.11352252 -32.3009394 42.18114055 -32.31719017 40.24881172 C-32.33911733 37.53232538 -32.34196057 34.81641478 -32.34057617 32.09985352 C-32.351362 31.30934601 -32.36214783 30.5188385 -32.3732605 29.70437622 C-32.32542342 20.97191976 -29.67714972 13.71723847 -24.0703125 7.01953125 C-16.99919663 0.12185785 -9.53405089 -0.73716888 0 0 Z " fill="#2458E0" transform="translate(41,10)"/>
<path d="M0 0 C0 0.66 0 1.32 0 2 C-1.32 2 -2.64 2 -4 2 C-4 2.66 -4 3.32 -4 4 C-3.32807617 3.92273682 -2.65615234 3.84547363 -1.96386719 3.76586914 C6.98490384 2.86634838 15.78726081 3.08402568 24.75 3.4375 C26.236956 3.49088373 27.72393531 3.54362213 29.2109375 3.59570312 C32.80759029 3.7230511 36.40385126 3.85905603 40 4 C40 4.33 40 4.66 40 5 C39.38592285 5.02505615 38.7718457 5.0501123 38.13916016 5.07592773 C35.30097366 5.19345264 32.4629956 5.31545526 29.625 5.4375 C28.17673828 5.49647461 28.17673828 5.49647461 26.69921875 5.55664062 C22.05617308 5.7591896 17.44929281 6.02708201 12.828125 6.52734375 C8.24662664 7.01408811 3.72989671 7.1545938 -0.875 7.125 C-1.64658447 7.12161621 -2.41816895 7.11823242 -3.21313477 7.11474609 C-20.56082054 6.95945298 -20.56082054 6.95945298 -25 4 C-7.61290323 -3.80645161 -7.61290323 -3.80645161 0 0 Z " fill="#26EAED" transform="translate(52,11)"/>
<path d="M0 0 C4.66070353 4.66070353 4.27911306 11.50090809 4.32226562 17.70703125 C4.31904297 18.75246094 4.31582031 19.79789063 4.3125 20.875 C4.32861328 21.91269531 4.34472656 22.95039062 4.36132812 24.01953125 C4.36545379 30.56284371 3.53003451 35.95204008 1 42 C0.67 42 0.34 42 0 42 C0 28.14 0 14.28 0 0 Z " fill="#646464" transform="translate(142,33)"/>
<path d="M0 0 C0.66902344 -0.03738281 1.33804688 -0.07476562 2.02734375 -0.11328125 C6.00650093 -0.18363963 7.59618186 0.25138175 10.734375 2.7734375 C12.75 5.375 12.75 5.375 12.75 7.375 C9.45840684 7.43290353 6.16694397 7.46856261 2.875 7.5 C1.46927734 7.52513672 1.46927734 7.52513672 0.03515625 7.55078125 C-0.86074219 7.55722656 -1.75664063 7.56367187 -2.6796875 7.5703125 C-3.50710449 7.58078613 -4.33452148 7.59125977 -5.18701172 7.60205078 C-7.25 7.375 -7.25 7.375 -9.25 5.375 C-8.34580894 -0.59266097 -5.33269114 0.11047006 0 0 Z " fill="#FCFDFD" transform="translate(47.25,81.625)"/>
<path d="M0 0 C1.47583955 0.0001591 2.95168467 0.00585225 4.42749023 0.01586914 C5.20293686 0.01728409 5.97838348 0.01869904 6.77732849 0.02015686 C9.26361893 0.02577194 11.74982059 0.03832693 14.23608398 0.05102539 C15.91772331 0.05603845 17.59936405 0.06060169 19.28100586 0.06469727 C23.41189965 0.07574626 27.54272674 0.09302094 31.67358398 0.11352539 C31.67358398 1.10352539 31.67358398 2.09352539 31.67358398 3.11352539 C34.64358398 3.11352539 37.61358398 3.11352539 40.67358398 3.11352539 C40.01358398 3.77352539 39.35358398 4.43352539 38.67358398 5.11352539 C36.90234338 4.91745522 35.13220077 4.70423492 33.37084961 4.43334961 C29.99294105 4.03281918 26.65228352 3.94902176 23.25170898 3.86743164 C22.5803894 3.85094574 21.90906982 3.83445984 21.21740723 3.81747437 C18.40522736 3.75005796 15.59303444 3.68830399 12.78051758 3.63671875 C10.70813026 3.59698411 8.63629157 3.54550914 6.56420898 3.49243164 C5.33734375 3.46737549 4.11047852 3.44231934 2.84643555 3.41650391 C-0.11725783 3.1334981 -1.82930776 2.66703129 -4.32641602 1.11352539 C-3.32641602 0.11352539 -3.32641602 0.11352539 0 0 Z " fill="#B1F5F5" transform="translate(65.326416015625,11.886474609375)"/>
<path d="M0 0 C0.99 0.33 1.98 0.66 3 1 C3 1.66 3 2.32 3 3 C3.66 3 4.32 3 5 3 C5.33 3.33 5.66 3.66 6 4 C6.66 4 7.32 4 8 4 C8.33 4.99 8.66 5.98 9 7 C3.72 12.28 -1.56 17.56 -7 23 C-7 19.48283697 -6.17554415 18.62878252 -4 16 C-4.99 15.67 -5.98 15.34 -7 15 C-6.55527344 14.63648438 -6.11054687 14.27296875 -5.65234375 13.8984375 C-3.90241745 12.34383327 -2.38471461 10.89058559 -1 9 C-1.1506293 5.84374353 -1.1506293 5.84374353 -2 3 C-1.34 2.01 -0.68 1.02 0 0 Z " fill="#0617C7" transform="translate(104,41)"/>
<path d="M0 0 C2.57000756 2.57000756 2.2527639 3.55061816 2.25878906 7.12060547 C2.26509338 8.18866425 2.27139771 9.25672302 2.27789307 10.35714722 C2.2738446 11.51546051 2.26979614 12.6737738 2.265625 13.8671875 C2.26753845 15.05345734 2.2694519 16.23972717 2.27142334 17.46194458 C2.27278651 19.97544567 2.26908092 22.48895377 2.26074219 25.00244141 C2.25006366 28.85204918 2.26062359 32.70118825 2.2734375 36.55078125 C2.27211556 38.98958437 2.26955245 41.42838719 2.265625 43.8671875 C2.26967346 45.02145233 2.27372192 46.17571716 2.27789307 47.36495972 C2.27158875 48.43932281 2.26528442 49.51368591 2.25878906 50.62060547 C2.25719788 51.56499481 2.25560669 52.50938416 2.25396729 53.48239136 C1.98943575 56.10472474 1.33190944 57.74755349 0 60 C0 59.34 0 58.68 0 58 C-0.66 58 -1.32 58 -2 58 C-2 56.02 -2 54.04 -2 52 C-2.99 52 -3.98 52 -5 52 C-4.67 50.68 -4.34 49.36 -4 48 C-3.34 48 -2.68 48 -2 48 C-2 46.35 -2 44.7 -2 43 C-1.34 43 -0.68 43 0 43 C0 28.81 0 14.62 0 0 Z " fill="#1F8ADD" transform="translate(140,28)"/>
<path d="M0 0 C0.99 0.66 1.98 1.32 3 2 C2.34 3.98 1.68 5.96 1 8 C1.99 8 2.98 8 4 8 C5 11 5 11 4 14 C4.66 13.67 5.32 13.34 6 13 C6.66 12.67 7.32 12.34 8 12 C8 15.63 8 19.26 8 23 C7.34 23.33 6.68 23.66 6 24 C6 21.69 6 19.38 6 17 C4.35 17.33 2.7 17.66 1 18 C0.67 15.69 0.34 13.38 0 11 C-0.99 11 -1.98 11 -3 11 C-3 10.01 -3 9.02 -3 8 C-2.01 8 -1.02 8 0 8 C0 7.34 0 6.68 0 6 C-0.66 6 -1.32 6 -2 6 C-1.49396008 3.83125748 -1.00016187 2.00032373 0 0 Z " fill="#174FE5" transform="translate(134,72)"/>
<path d="M0 0 C0.66 0 1.32 0 2 0 C2.66 1.98 3.32 3.96 4 6 C5.32 6 6.64 6 8 6 C8.125 8.875 8.125 8.875 8 12 C7.34 12.66 6.68 13.32 6 14 C2.375 13.625 2.375 13.625 -1 13 C-0.67 11.02 -0.34 9.04 0 7 C-0.99 6.67 -1.98 6.34 -3 6 C-2 4 -1 2 0 0 Z " fill="#1444E1" transform="translate(123,60)"/>
<path d="M0 0 C4.455 0.99 4.455 0.99 9 2 C9 2.66 9 3.32 9 4 C10.32 4 11.64 4 13 4 C13 5.32 13 6.64 13 8 C12.34 8 11.68 8 11 8 C11 7.34 11 6.68 11 6 C10.34 6 9.68 6 9 6 C9 7.32 9 8.64 9 10 C7 11.75 7 11.75 5 13 C3.5783681 9.6828589 2.60990891 6.55780196 2 3 C1.34 3 0.68 3 0 3 C0 2.01 0 1.02 0 0 Z " fill="#1430E4" transform="translate(79,21)"/>
<path d="M0 0 C9.24 0 18.48 0 28 0 C27.01 1.485 27.01 1.485 26 3 C23.1796875 3.51171875 23.1796875 3.51171875 19.875 3.6875 C18.23144531 3.78611328 18.23144531 3.78611328 16.5546875 3.88671875 C15.29011719 3.94279297 15.29011719 3.94279297 14 4 C14 3.34 14 2.68 14 2 C9.38 2 4.76 2 0 2 C0 1.34 0 0.68 0 0 Z " fill="#2BEFEE" transform="translate(83,10)"/>
<path d="M0 0 C1.65 0.99 3.3 1.98 5 3 C4.67 5.31 4.34 7.62 4 10 C5.98 10 7.96 10 10 10 C10 10.66 10 11.32 10 12 C8.02 12.66 6.04 13.32 4 14 C2 11 2 11 2 7 C1.34 7 0.68 7 0 7 C-0.38133299 5.0085944 -0.71325582 3.00720923 -1 1 C-0.67 0.67 -0.34 0.34 0 0 Z " fill="#15C8DC" transform="translate(123,53)"/>
<path d="M0 0 C0.99 0.33 1.98 0.66 3 1 C3 6.28 3 11.56 3 17 C2.67 16.34 2.34 15.68 2 15 C1.34 15 0.68 15 0 15 C0 13.02 0 11.04 0 9 C-0.99 9 -1.98 9 -3 9 C-2.67 7.68 -2.34 6.36 -2 5 C-1.34 5 -0.68 5 0 5 C0 3.35 0 1.7 0 0 Z " fill="#1B9EE7" transform="translate(138,71)"/>
<path d="M0 0 C0.66 0.66 1.32 1.32 2 2 C2.66 1.67 3.32 1.34 4 1 C4.33 1.99 4.66 2.98 5 4 C3.02 5.98 1.04 7.96 -1 10 C-1.66 9.67 -2.32 9.34 -3 9 C-2.34 7.02 -1.68 5.04 -1 3 C-1.66 3 -2.32 3 -3 3 C-3 2.34 -3 1.68 -3 1 C-2.01 0.67 -1.02 0.34 0 0 Z " fill="#0E8ECF" transform="translate(108,44)"/>
<path d="M0 0 C2.0625 0.4375 2.0625 0.4375 4 1 C4.33 2.65 4.66 4.3 5 6 C5.66 6 6.32 6 7 6 C6.67 6.99 6.34 7.98 6 9 C6 8.34 6 7.68 6 7 C5.34 7 4.68 7 4 7 C4 6.34 4 5.68 4 5 C3.34 5 2.68 5 2 5 C1.67 5.99 1.34 6.98 1 8 C-1 6 -1 6 -1.1875 3.4375 C-1 1 -1 1 0 0 Z " fill="#13CDDE" transform="translate(93,30)"/>
<path d="M0 0 C0.66 0.33 1.32 0.66 2 1 C1.360625 1.763125 0.72125 2.52625 0.0625 3.3125 C-2.14232781 5.88246713 -2.14232781 5.88246713 -3 9 C-3.7425 9.61875 -3.7425 9.61875 -4.5 10.25 C-6.76247456 12.88955365 -6.68138743 15.62270673 -7 19 C-7.33 19 -7.66 19 -8 19 C-8.80775534 11.59557608 -6.59175214 7.73374231 -2 2 C-1.34 1.34 -0.68 0.68 0 0 Z " fill="#2245DD" transform="translate(19,15)"/>
<path d="M0 0 C0.33 0.66 0.66 1.32 1 2 C0.34 2 -0.32 2 -1 2 C-1 2.66 -1 3.32 -1 4 C-0.34 4 0.32 4 1 4 C0.34 5.32 -0.32 6.64 -1 8 C-3.31 7.34 -5.62 6.68 -8 6 C-8 5.34 -8 4.68 -8 4 C-6.02 3.67 -4.04 3.34 -2 3 C-2 2.34 -2 1.68 -2 1 C-1.34 0.67 -0.68 0.34 0 0 Z " fill="#1076D5" transform="translate(103,37)"/>
<path d="M0 0 C0.84175781 -0.02578125 1.68351562 -0.0515625 2.55078125 -0.078125 C3.25589844 0.03015625 3.96101563 0.1384375 4.6875 0.25 C5.3475 1.24 6.0075 2.23 6.6875 3.25 C0.24679529 3.35655578 -5.93891289 3.21205088 -12.3125 2.25 C-12.3125 1.92 -12.3125 1.59 -12.3125 1.25 C-8.1996637 0.53472412 -4.17564434 0.12120883 0 0 Z " fill="#1DB8EA" transform="translate(65.3125,16.75)"/>
<path d="M0 0 C3.2902091 -0.36622469 4.63009587 -0.26974736 7.3515625 1.71484375 C8.47691406 2.81505859 8.47691406 2.81505859 9.625 3.9375 C12.88707125 7.14407967 12.88707125 7.14407967 17 9 C17 9.99 17 10.98 17 12 C12.65162371 10.10252671 9.65490006 7.07579731 6.21875 3.875 C4.19789547 2.1672356 2.41137444 1.05223612 0 0 Z " fill="#060FC8" transform="translate(62,72)"/>
<path d="M0 0 C0.66 0.66 1.32 1.32 2 2 C5.58343976 2.16677282 5.58343976 2.16677282 9 2 C9 3.32 9 4.64 9 6 C8.34 6 7.68 6 7 6 C7 5.34 7 4.68 7 4 C5.68 4 4.36 4 3 4 C3 4.66 3 5.32 3 6 C1.68 5.34 0.36 4.68 -1 4 C-0.67 2.68 -0.34 1.36 0 0 Z " fill="#146CE5" transform="translate(83,23)"/>
<path d="M0 0 C0.99 0.33 1.98 0.66 3 1 C3.6875 3.0625 3.6875 3.0625 4 5 C3.01 4.67 2.02 4.34 1 4 C1 4.66 1 5.32 1 6 C1.66 6 2.32 6 3 6 C2.34 7.32 1.68 8.64 1 10 C0.67 10 0.34 10 0 10 C-1.125 6.6875 -1.125 6.6875 -2 3 C-1.34 2.01 -0.68 1.02 0 0 Z " fill="#0D3ED1" transform="translate(104,41)"/>
<path d="M0 0 C0.309375 0.639375 0.61875 1.27875 0.9375 1.9375 C1.8345163 3.93610821 1.8345163 3.93610821 3 5 C3.04063832 6.66617115 3.042721 8.33388095 3 10 C2.01 10.495 2.01 10.495 1 11 C1 10.01 1 9.02 1 8 C0.01 7.67 -0.98 7.34 -2 7 C-1.34 7 -0.68 7 0 7 C0 4.69 0 2.38 0 0 Z " fill="#18ADE5" transform="translate(134,64)"/>
<path d="M0 0 C1.32 0 2.64 0 4 0 C4 1.98 4 3.96 4 6 C3.01 6.33 2.02 6.66 1 7 C1 6.01 1 5.02 1 4 C0.34 3.67 -0.32 3.34 -1 3 C-0.34 3 0.32 3 1 3 C0.67 2.01 0.34 1.02 0 0 Z " fill="#17ECE4" transform="translate(130,65)"/>
<path d="M0 0 C1.77049689 -0.05410687 3.54146849 -0.09284119 5.3125 -0.125 C6.29863281 -0.14820313 7.28476563 -0.17140625 8.30078125 -0.1953125 C11 0 11 0 14 2 C13.16855469 1.98839844 12.33710937 1.97679687 11.48046875 1.96484375 C9.85044922 1.95130859 9.85044922 1.95130859 8.1875 1.9375 C6.56908203 1.92009766 6.56908203 1.92009766 4.91796875 1.90234375 C1.93487831 1.86375234 1.93487831 1.86375234 -1 3 C-0.67 2.01 -0.34 1.02 0 0 Z " fill="#2DDAE7" transform="translate(111,10)"/>
<path d="M0 0 C1.32 0.66 2.64 1.32 4 2 C0.37 2 -3.26 2 -7 2 C-7 1.34 -7 0.68 -7 0 C-4.27761216 -1.36119392 -2.90677521 -0.76129827 0 0 Z " fill="#46F2F3" transform="translate(61,13)"/>
<path d="M0 0 C2 3 2 3 1.625 6.1875 C1.41875 7.115625 1.2125 8.04375 1 9 C0.01 9.33 -0.98 9.66 -2 10 C-2 8.68 -2 7.36 -2 6 C-1.34 6 -0.68 6 0 6 C0 4.02 0 2.04 0 0 Z " fill="#1736E7" transform="translate(137,80)"/>
<path d="M0 0 C0.33 0 0.66 0 1 0 C1 2.64 1 5.28 1 8 C0.67 7.34 0.34 6.68 0 6 C-0.99 6 -1.98 6 -3 6 C-2.67 4.68 -2.34 3.36 -2 2 C-1.34 2 -0.68 2 0 2 C0 1.34 0 0.68 0 0 Z " fill="#187CE7" transform="translate(138,74)"/>
<path d="M0 0 C0.66 0 1.32 0 2 0 C2 1.98 2 3.96 2 6 C0.68 6.33 -0.64 6.66 -2 7 C-2 3.89448334 -1.4606285 2.64738916 0 0 Z " fill="#1346DB" transform="translate(123,60)"/>
<path d="M0 0 C0.99 0.66 1.98 1.32 3 2 C2.34 3.32 1.68 4.64 1 6 C0.01 6 -0.98 6 -2 6 C-1.49396008 3.83125748 -1.00016187 2.00032373 0 0 Z " fill="#1759E6" transform="translate(134,72)"/>
<path d="M0 0 C0 3.57575896 -1.08840607 5.05295935 -3 8 C-3.99 7.67 -4.98 7.34 -6 7 C-5.525625 6.566875 -5.05125 6.13375 -4.5625 5.6875 C-2.76313043 3.97690387 -2.76313043 3.97690387 -2 1 C-1.34 0.67 -0.68 0.34 0 0 Z " fill="#1B48D6" transform="translate(122,50)"/>
<path d="M0 0 C1.65 0.33 3.3 0.66 5 1 C5 1.99 5 2.98 5 4 C2.03 3.505 2.03 3.505 -1 3 C-0.67 2.01 -0.34 1.02 0 0 Z " fill="#13B4D6" transform="translate(114,44)"/>
<path d="M0 0 C0.66 0 1.32 0 2 0 C2 0.66 2 1.32 2 2 C1.34 2 0.68 2 0 2 C0 1.34 0 0.68 0 0 Z " fill="#444EE7" transform="translate(9,140)"/>
</svg>
